<mxfile host="app.diagrams.net" modified="2023-10-24T08:39:53.456Z" agent="Mozilla/5.0 (Windows NT 10.0; Win64; x64) AppleWebKit/537.36 (KHTML, like Gecko) Chrome/118.0.0.0 Safari/537.36" etag="20AbyTidh26pqSivgsJY" version="22.0.6" type="github" pages="2">
  <diagram name="Kata Palindrom" id="xqpit8tieolZGP3yh0wS">
    <mxGraphModel dx="1876" dy="553" grid="1" gridSize="10" guides="1" tooltips="1" connect="1" arrows="1" fold="1" page="1" pageScale="1" pageWidth="850" pageHeight="1100" math="0" shadow="0">
      <root>
        <mxCell id="0" />
        <mxCell id="1" parent="0" />
        <mxCell id="0j6sQtGZUSPRx_zmh45T-1" value="PSEUDOCODE&lt;br&gt;&lt;div&gt;Algoritma Kata_Palindrom&lt;/div&gt;&lt;div&gt;&lt;br&gt;&lt;/div&gt;&lt;div&gt;DECLARATION&lt;/div&gt;&lt;div&gt;kata, i, reversed&lt;/div&gt;&lt;div&gt;&lt;br&gt;&lt;/div&gt;&lt;div&gt;BEGIN&lt;/div&gt;&lt;div&gt;&lt;span style=&quot;white-space: pre;&quot;&gt;&#x9;&lt;/span&gt;INPUT kata&lt;/div&gt;&lt;div&gt;&lt;span style=&quot;white-space: pre;&quot;&gt;&#x9;&lt;/span&gt;i = lengthe.kata - 1&lt;br&gt;&lt;/div&gt;&lt;div&gt;&lt;span style=&quot;white-space: pre;&quot;&gt;&#x9;&lt;/span&gt;&lt;/div&gt;&lt;div&gt;&lt;span style=&quot;white-space: pre;&quot;&gt;&#x9;&lt;/span&gt;FOR i = length.kata - 1 to 0&lt;/div&gt;&lt;div&gt;&lt;span style=&quot;white-space: pre;&quot;&gt;&#x9;&lt;span style=&quot;white-space: pre;&quot;&gt;&#x9;&lt;/span&gt;r&lt;/span&gt;eversed += kata[i]&lt;br&gt;&lt;/div&gt;&lt;div&gt;&lt;span style=&quot;white-space: pre;&quot;&gt;&#x9;&lt;/span&gt;&lt;span style=&quot;white-space: pre;&quot;&gt;&#x9;&lt;/span&gt;i = i - 1&lt;br&gt;&lt;/div&gt;&lt;div&gt;&lt;span style=&quot;white-space: pre;&quot;&gt;&#x9;&lt;/span&gt;END FOR&lt;br&gt;&lt;/div&gt;&lt;div&gt;&lt;br&gt;&lt;/div&gt;&lt;div&gt;&lt;span style=&quot;white-space: pre;&quot;&gt;&#x9;&lt;/span&gt;IF reversed === kata THEN&lt;br&gt;&lt;/div&gt;&lt;div&gt;&lt;span style=&quot;white-space: pre;&quot;&gt;&#x9;&lt;/span&gt;&lt;span style=&quot;white-space: pre;&quot;&gt;&#x9;&lt;/span&gt;OUTPUT kata + &quot; adalah kata palindrom&quot;&lt;br&gt;&lt;/div&gt;&lt;div&gt;&lt;span style=&quot;white-space: pre;&quot;&gt;&#x9;&lt;/span&gt;ELSE&lt;br&gt;&lt;/div&gt;&lt;div&gt;&lt;span style=&quot;white-space: pre;&quot;&gt;&#x9;&lt;/span&gt;&lt;span style=&quot;white-space: pre;&quot;&gt;&#x9;&lt;/span&gt;OUTPUT kata + &quot; bukan kata palindrom&quot;&lt;br&gt;&lt;/div&gt;&lt;div&gt;END&lt;/div&gt;&lt;div&gt;&lt;br&gt;&lt;/div&gt;" style="text;html=1;align=left;verticalAlign=top;resizable=0;points=[];autosize=1;strokeColor=none;fillColor=none;" parent="1" vertex="1">
          <mxGeometry x="320" y="40" width="300" height="320" as="geometry" />
        </mxCell>
        <mxCell id="0j6sQtGZUSPRx_zmh45T-26" style="edgeStyle=orthogonalEdgeStyle;rounded=0;orthogonalLoop=1;jettySize=auto;html=1;entryX=0.5;entryY=0;entryDx=0;entryDy=0;" parent="1" source="0j6sQtGZUSPRx_zmh45T-2" target="0j6sQtGZUSPRx_zmh45T-3" edge="1">
          <mxGeometry relative="1" as="geometry" />
        </mxCell>
        <mxCell id="0j6sQtGZUSPRx_zmh45T-2" value="START" style="ellipse;whiteSpace=wrap;html=1;" parent="1" vertex="1">
          <mxGeometry x="90" y="40" width="95" height="50" as="geometry" />
        </mxCell>
        <mxCell id="0j6sQtGZUSPRx_zmh45T-27" style="edgeStyle=orthogonalEdgeStyle;rounded=0;orthogonalLoop=1;jettySize=auto;html=1;entryX=0.5;entryY=0;entryDx=0;entryDy=0;" parent="1" source="0j6sQtGZUSPRx_zmh45T-3" target="0j6sQtGZUSPRx_zmh45T-4" edge="1">
          <mxGeometry relative="1" as="geometry" />
        </mxCell>
        <mxCell id="0j6sQtGZUSPRx_zmh45T-3" value="INPUT kata" style="shape=parallelogram;perimeter=parallelogramPerimeter;whiteSpace=wrap;html=1;fixedSize=1;" parent="1" vertex="1">
          <mxGeometry x="86.25" y="120" width="102.5" height="40" as="geometry" />
        </mxCell>
        <mxCell id="0j6sQtGZUSPRx_zmh45T-28" style="edgeStyle=orthogonalEdgeStyle;rounded=0;orthogonalLoop=1;jettySize=auto;html=1;entryX=0.5;entryY=0;entryDx=0;entryDy=0;" parent="1" source="0j6sQtGZUSPRx_zmh45T-4" target="0j6sQtGZUSPRx_zmh45T-5" edge="1">
          <mxGeometry relative="1" as="geometry" />
        </mxCell>
        <mxCell id="0j6sQtGZUSPRx_zmh45T-4" value="i, reversed" style="shape=process;whiteSpace=wrap;html=1;backgroundOutline=1;" parent="1" vertex="1">
          <mxGeometry x="85.63" y="190" width="105" height="40" as="geometry" />
        </mxCell>
        <mxCell id="Wfg1hlL-yYo0V63kEh8X-1" style="edgeStyle=orthogonalEdgeStyle;rounded=0;orthogonalLoop=1;jettySize=auto;html=1;entryX=0.5;entryY=0;entryDx=0;entryDy=0;" edge="1" parent="1" source="0j6sQtGZUSPRx_zmh45T-5" target="0j6sQtGZUSPRx_zmh45T-6">
          <mxGeometry relative="1" as="geometry" />
        </mxCell>
        <mxCell id="0j6sQtGZUSPRx_zmh45T-5" value="i = length.kata - 1" style="rounded=0;whiteSpace=wrap;html=1;" parent="1" vertex="1">
          <mxGeometry x="85.63" y="260" width="105" height="40" as="geometry" />
        </mxCell>
        <mxCell id="Wfg1hlL-yYo0V63kEh8X-3" value="Yes" style="edgeStyle=orthogonalEdgeStyle;rounded=0;orthogonalLoop=1;jettySize=auto;html=1;entryX=0.5;entryY=0;entryDx=0;entryDy=0;" edge="1" parent="1" source="0j6sQtGZUSPRx_zmh45T-6" target="0j6sQtGZUSPRx_zmh45T-7">
          <mxGeometry relative="1" as="geometry" />
        </mxCell>
        <mxCell id="Wfg1hlL-yYo0V63kEh8X-8" style="edgeStyle=orthogonalEdgeStyle;rounded=0;orthogonalLoop=1;jettySize=auto;html=1;entryX=0.5;entryY=0;entryDx=0;entryDy=0;" edge="1" parent="1" source="0j6sQtGZUSPRx_zmh45T-6" target="0j6sQtGZUSPRx_zmh45T-16">
          <mxGeometry relative="1" as="geometry" />
        </mxCell>
        <mxCell id="Wfg1hlL-yYo0V63kEh8X-9" value="No" style="edgeLabel;html=1;align=center;verticalAlign=middle;resizable=0;points=[];" vertex="1" connectable="0" parent="Wfg1hlL-yYo0V63kEh8X-8">
          <mxGeometry x="-0.5835" y="1" relative="1" as="geometry">
            <mxPoint as="offset" />
          </mxGeometry>
        </mxCell>
        <mxCell id="0j6sQtGZUSPRx_zmh45T-6" value="i &amp;gt;= 0" style="rhombus;whiteSpace=wrap;html=1;" parent="1" vertex="1">
          <mxGeometry x="82.72" y="330" width="111.25" height="80" as="geometry" />
        </mxCell>
        <mxCell id="Wfg1hlL-yYo0V63kEh8X-7" style="edgeStyle=orthogonalEdgeStyle;rounded=0;orthogonalLoop=1;jettySize=auto;html=1;entryX=0.5;entryY=1;entryDx=0;entryDy=0;" edge="1" parent="1" source="0j6sQtGZUSPRx_zmh45T-7" target="Wfg1hlL-yYo0V63kEh8X-5">
          <mxGeometry relative="1" as="geometry" />
        </mxCell>
        <mxCell id="0j6sQtGZUSPRx_zmh45T-7" value="reversed += kata[i]" style="rounded=0;whiteSpace=wrap;html=1;" parent="1" vertex="1">
          <mxGeometry x="85.63" y="470.01" width="105" height="40" as="geometry" />
        </mxCell>
        <mxCell id="0j6sQtGZUSPRx_zmh45T-24" style="edgeStyle=orthogonalEdgeStyle;rounded=0;orthogonalLoop=1;jettySize=auto;html=1;entryX=0.5;entryY=0;entryDx=0;entryDy=0;" parent="1" source="0j6sQtGZUSPRx_zmh45T-12" target="0j6sQtGZUSPRx_zmh45T-13" edge="1">
          <mxGeometry relative="1" as="geometry" />
        </mxCell>
        <mxCell id="0j6sQtGZUSPRx_zmh45T-12" value="OUTPUT&lt;br&gt;kata, &quot; adalah kata palindrom&quot;" style="shape=parallelogram;perimeter=parallelogramPerimeter;whiteSpace=wrap;html=1;fixedSize=1;" parent="1" vertex="1">
          <mxGeometry x="180" y="580.01" width="136.7" height="50" as="geometry" />
        </mxCell>
        <mxCell id="0j6sQtGZUSPRx_zmh45T-13" value="END" style="ellipse;whiteSpace=wrap;html=1;" parent="1" vertex="1">
          <mxGeometry x="296.7" y="670.01" width="95" height="50" as="geometry" />
        </mxCell>
        <mxCell id="0j6sQtGZUSPRx_zmh45T-22" value="Yes" style="edgeStyle=orthogonalEdgeStyle;rounded=0;orthogonalLoop=1;jettySize=auto;html=1;entryX=0.5;entryY=0;entryDx=0;entryDy=0;" parent="1" source="0j6sQtGZUSPRx_zmh45T-16" target="0j6sQtGZUSPRx_zmh45T-12" edge="1">
          <mxGeometry relative="1" as="geometry">
            <Array as="points">
              <mxPoint x="343" y="540.01" />
              <mxPoint x="248" y="540.01" />
            </Array>
          </mxGeometry>
        </mxCell>
        <mxCell id="0j6sQtGZUSPRx_zmh45T-23" value="NO" style="edgeStyle=orthogonalEdgeStyle;rounded=0;orthogonalLoop=1;jettySize=auto;html=1;entryX=0.5;entryY=0;entryDx=0;entryDy=0;" parent="1" source="0j6sQtGZUSPRx_zmh45T-16" target="0j6sQtGZUSPRx_zmh45T-19" edge="1">
          <mxGeometry relative="1" as="geometry">
            <Array as="points">
              <mxPoint x="343" y="540.01" />
              <mxPoint x="441" y="540.01" />
            </Array>
          </mxGeometry>
        </mxCell>
        <mxCell id="0j6sQtGZUSPRx_zmh45T-16" value="reversed === kata" style="rhombus;whiteSpace=wrap;html=1;" parent="1" vertex="1">
          <mxGeometry x="287.71999999999997" y="450.01" width="111.25" height="80" as="geometry" />
        </mxCell>
        <mxCell id="0j6sQtGZUSPRx_zmh45T-25" style="edgeStyle=orthogonalEdgeStyle;rounded=0;orthogonalLoop=1;jettySize=auto;html=1;entryX=0.5;entryY=0;entryDx=0;entryDy=0;" parent="1" source="0j6sQtGZUSPRx_zmh45T-19" target="0j6sQtGZUSPRx_zmh45T-13" edge="1">
          <mxGeometry relative="1" as="geometry" />
        </mxCell>
        <mxCell id="0j6sQtGZUSPRx_zmh45T-19" value="OUTPUT&lt;br style=&quot;border-color: var(--border-color);&quot;&gt;kata, &quot; bukan kata palindrom&quot;" style="shape=parallelogram;perimeter=parallelogramPerimeter;whiteSpace=wrap;html=1;fixedSize=1;" parent="1" vertex="1">
          <mxGeometry x="375.94" y="580.01" width="130.76" height="50" as="geometry" />
        </mxCell>
        <mxCell id="Wfg1hlL-yYo0V63kEh8X-6" style="edgeStyle=orthogonalEdgeStyle;rounded=0;orthogonalLoop=1;jettySize=auto;html=1;" edge="1" parent="1" source="Wfg1hlL-yYo0V63kEh8X-5">
          <mxGeometry relative="1" as="geometry">
            <mxPoint x="80" y="370" as="targetPoint" />
          </mxGeometry>
        </mxCell>
        <mxCell id="Wfg1hlL-yYo0V63kEh8X-5" value="i = i -1" style="rounded=0;whiteSpace=wrap;html=1;" vertex="1" parent="1">
          <mxGeometry x="-80" y="350" width="105" height="40" as="geometry" />
        </mxCell>
      </root>
    </mxGraphModel>
  </diagram>
  <diagram id="YrjnK25kQzQfnbG0g_Ak" name="Membalikan Kalimat">
    <mxGraphModel dx="2096" dy="671" grid="1" gridSize="10" guides="1" tooltips="1" connect="1" arrows="1" fold="1" page="1" pageScale="1" pageWidth="850" pageHeight="1100" math="0" shadow="0">
      <root>
        <mxCell id="0" />
        <mxCell id="1" parent="0" />
        <mxCell id="r62YdPziTSWUFzZEgCQk-1" value="PSEUDOCODE&lt;br&gt;&lt;br&gt;&lt;div&gt;Algoritma Membalikan_Kalimat&lt;/div&gt;&lt;div&gt;&lt;br&gt;&lt;/div&gt;&lt;div&gt;DECLARATION&lt;/div&gt;&lt;div&gt;text, kata, reversed, i&lt;/div&gt;&lt;div&gt;&lt;br&gt;&lt;/div&gt;&lt;div&gt;BEGIN&lt;/div&gt;&lt;div&gt;&lt;span style=&quot;white-space: pre;&quot;&gt;&#x9;&lt;/span&gt;INPUT text&lt;/div&gt;&lt;div&gt;&lt;span style=&quot;white-space: pre;&quot;&gt;&#x9;&lt;/span&gt;i = text.length - 1&lt;/div&gt;&lt;div&gt;&lt;span style=&quot;white-space: pre;&quot;&gt;&#x9;&lt;/span&gt;&lt;br&gt;&lt;/div&gt;&lt;div&gt;&lt;span style=&quot;white-space: pre;&quot;&gt;&#x9;&lt;/span&gt;WHILE i &amp;gt;= 0&lt;br&gt;&lt;/div&gt;&lt;div&gt;&lt;span style=&quot;white-space: pre;&quot;&gt;&#x9;&lt;/span&gt;&lt;span style=&quot;white-space: pre;&quot;&gt;&#x9;&lt;/span&gt;IF text[i] != &quot; &quot; THEN&lt;/div&gt;&lt;div&gt;&lt;span style=&quot;white-space: pre;&quot;&gt;&#x9;&lt;/span&gt;&lt;span style=&quot;white-space: pre;&quot;&gt;&#x9;&lt;/span&gt;&lt;span style=&quot;white-space: pre;&quot;&gt;&#x9;&lt;/span&gt;kata = text[i] + kata&lt;br&gt;&lt;/div&gt;&lt;div&gt;&lt;span style=&quot;white-space: pre;&quot;&gt;&#x9;&lt;/span&gt;&lt;span style=&quot;white-space: pre;&quot;&gt;&#x9;&lt;/span&gt;ELSE&lt;br&gt;&lt;/div&gt;&lt;div&gt;&lt;span style=&quot;white-space: pre;&quot;&gt;&#x9;&lt;/span&gt;&lt;span style=&quot;white-space: pre;&quot;&gt;&#x9;&lt;/span&gt;&lt;span style=&quot;white-space: pre;&quot;&gt;&#x9;&lt;/span&gt;reversed = reversed + kata + &quot; &quot;&lt;br&gt;&lt;/div&gt;&lt;div&gt;&lt;span style=&quot;white-space: pre;&quot;&gt;&#x9;&lt;/span&gt;&lt;span style=&quot;white-space: pre;&quot;&gt;&#x9;&lt;/span&gt;&lt;span style=&quot;white-space: pre;&quot;&gt;&#x9;&lt;/span&gt;kata = &quot;&quot;&lt;br&gt;&lt;/div&gt;&lt;div&gt;&lt;span style=&quot;white-space: pre;&quot;&gt;&#x9;&lt;/span&gt;&lt;span style=&quot;white-space: pre;&quot;&gt;&#x9;&lt;/span&gt;END IF&lt;br&gt;&lt;/div&gt;&lt;div&gt;&lt;span style=&quot;white-space: pre;&quot;&gt;&#x9;&lt;span style=&quot;white-space: pre;&quot;&gt;&#x9;&lt;/span&gt;i&lt;/span&gt;&amp;nbsp;= i - 1&lt;br&gt;&lt;/div&gt;&lt;div&gt;&lt;span style=&quot;white-space: pre;&quot;&gt;&#x9;&lt;/span&gt;END WHILE&lt;br&gt;&lt;/div&gt;&lt;div&gt;&lt;br&gt;&lt;/div&gt;&lt;div&gt;&lt;span style=&quot;white-space: pre;&quot;&gt;&#x9;&lt;/span&gt;revesrsed = reversed + kata&lt;br&gt;&lt;/div&gt;&lt;div&gt;&lt;span style=&quot;white-space: pre;&quot;&gt;&#x9;&lt;/span&gt;OUTPUT reversed&lt;br&gt;&lt;/div&gt;&lt;div&gt;END&lt;/div&gt;" style="text;html=1;align=left;verticalAlign=top;resizable=0;points=[];autosize=1;strokeColor=none;fillColor=none;" parent="1" vertex="1">
          <mxGeometry x="440" y="30" width="270" height="360" as="geometry" />
        </mxCell>
        <mxCell id="ebl3Q_jnDtNQ2AUFW4kh-1" style="edgeStyle=orthogonalEdgeStyle;rounded=0;orthogonalLoop=1;jettySize=auto;html=1;entryX=0.5;entryY=0;entryDx=0;entryDy=0;" parent="1" source="ebl3Q_jnDtNQ2AUFW4kh-2" target="ebl3Q_jnDtNQ2AUFW4kh-4" edge="1">
          <mxGeometry relative="1" as="geometry" />
        </mxCell>
        <mxCell id="ebl3Q_jnDtNQ2AUFW4kh-2" value="START" style="ellipse;whiteSpace=wrap;html=1;" parent="1" vertex="1">
          <mxGeometry x="105.85" y="60" width="95" height="50" as="geometry" />
        </mxCell>
        <mxCell id="ncUxjvFvRFmQVNuEIJSt-6" style="edgeStyle=orthogonalEdgeStyle;rounded=0;orthogonalLoop=1;jettySize=auto;html=1;entryX=0.5;entryY=0;entryDx=0;entryDy=0;" edge="1" parent="1" source="ebl3Q_jnDtNQ2AUFW4kh-4" target="1wEmfwZac7cIIyaToaPY-1">
          <mxGeometry relative="1" as="geometry" />
        </mxCell>
        <mxCell id="ebl3Q_jnDtNQ2AUFW4kh-4" value="INPUT text" style="shape=parallelogram;perimeter=parallelogramPerimeter;whiteSpace=wrap;html=1;fixedSize=1;fontSize=11;" parent="1" vertex="1">
          <mxGeometry x="102.1" y="140" width="102.5" height="40" as="geometry" />
        </mxCell>
        <mxCell id="ncUxjvFvRFmQVNuEIJSt-7" style="edgeStyle=orthogonalEdgeStyle;rounded=0;orthogonalLoop=1;jettySize=auto;html=1;entryX=0.5;entryY=0;entryDx=0;entryDy=0;" edge="1" parent="1" source="1wEmfwZac7cIIyaToaPY-1" target="F6_tVpXrSe34Kp89C39W-1">
          <mxGeometry relative="1" as="geometry" />
        </mxCell>
        <mxCell id="1wEmfwZac7cIIyaToaPY-1" value="i, kata, reversed" style="shape=process;whiteSpace=wrap;html=1;backgroundOutline=1;" vertex="1" parent="1">
          <mxGeometry x="93.35" y="210" width="120" height="60" as="geometry" />
        </mxCell>
        <mxCell id="ncUxjvFvRFmQVNuEIJSt-8" style="edgeStyle=orthogonalEdgeStyle;rounded=0;orthogonalLoop=1;jettySize=auto;html=1;entryX=0.5;entryY=0;entryDx=0;entryDy=0;" edge="1" parent="1" source="F6_tVpXrSe34Kp89C39W-1" target="AWNymy5XYkaNNb0FnIpC-1">
          <mxGeometry relative="1" as="geometry" />
        </mxCell>
        <mxCell id="F6_tVpXrSe34Kp89C39W-1" value="i = length.kata - 1" style="rounded=0;whiteSpace=wrap;html=1;" vertex="1" parent="1">
          <mxGeometry x="100.85" y="300" width="105" height="40" as="geometry" />
        </mxCell>
        <mxCell id="ncUxjvFvRFmQVNuEIJSt-9" value="Yes" style="edgeStyle=orthogonalEdgeStyle;rounded=0;orthogonalLoop=1;jettySize=auto;html=1;entryX=0.5;entryY=0;entryDx=0;entryDy=0;" edge="1" parent="1" source="AWNymy5XYkaNNb0FnIpC-1" target="AWNymy5XYkaNNb0FnIpC-2">
          <mxGeometry relative="1" as="geometry" />
        </mxCell>
        <mxCell id="ncUxjvFvRFmQVNuEIJSt-19" value="No" style="edgeStyle=orthogonalEdgeStyle;rounded=0;orthogonalLoop=1;jettySize=auto;html=1;entryX=0;entryY=0.5;entryDx=0;entryDy=0;" edge="1" parent="1" source="AWNymy5XYkaNNb0FnIpC-1" target="ncUxjvFvRFmQVNuEIJSt-3">
          <mxGeometry relative="1" as="geometry" />
        </mxCell>
        <mxCell id="AWNymy5XYkaNNb0FnIpC-1" value="i &amp;gt;= 0" style="rhombus;whiteSpace=wrap;html=1;" vertex="1" parent="1">
          <mxGeometry x="96.7" y="370" width="113.3" height="80" as="geometry" />
        </mxCell>
        <mxCell id="ncUxjvFvRFmQVNuEIJSt-11" value="Yes" style="edgeStyle=orthogonalEdgeStyle;rounded=0;orthogonalLoop=1;jettySize=auto;html=1;entryX=1;entryY=0.5;entryDx=0;entryDy=0;" edge="1" parent="1" source="AWNymy5XYkaNNb0FnIpC-2" target="AWNymy5XYkaNNb0FnIpC-4">
          <mxGeometry relative="1" as="geometry" />
        </mxCell>
        <mxCell id="ncUxjvFvRFmQVNuEIJSt-12" value="No" style="edgeStyle=orthogonalEdgeStyle;rounded=0;orthogonalLoop=1;jettySize=auto;html=1;entryX=0.5;entryY=0;entryDx=0;entryDy=0;" edge="1" parent="1" source="AWNymy5XYkaNNb0FnIpC-2" target="AWNymy5XYkaNNb0FnIpC-3">
          <mxGeometry relative="1" as="geometry" />
        </mxCell>
        <mxCell id="AWNymy5XYkaNNb0FnIpC-2" value="text[i] != &quot; &quot;" style="rhombus;whiteSpace=wrap;html=1;" vertex="1" parent="1">
          <mxGeometry x="96.7" y="485" width="113.3" height="80" as="geometry" />
        </mxCell>
        <mxCell id="ncUxjvFvRFmQVNuEIJSt-13" style="edgeStyle=orthogonalEdgeStyle;rounded=0;orthogonalLoop=1;jettySize=auto;html=1;entryX=0.5;entryY=0;entryDx=0;entryDy=0;" edge="1" parent="1" source="AWNymy5XYkaNNb0FnIpC-3" target="ncUxjvFvRFmQVNuEIJSt-1">
          <mxGeometry relative="1" as="geometry" />
        </mxCell>
        <mxCell id="AWNymy5XYkaNNb0FnIpC-3" value="reversed = reversed + kata +&lt;br&gt;&quot; &quot;" style="rounded=0;whiteSpace=wrap;html=1;" vertex="1" parent="1">
          <mxGeometry x="100.85" y="600" width="105" height="40" as="geometry" />
        </mxCell>
        <mxCell id="ncUxjvFvRFmQVNuEIJSt-17" style="edgeStyle=orthogonalEdgeStyle;rounded=0;orthogonalLoop=1;jettySize=auto;html=1;entryX=0.5;entryY=1;entryDx=0;entryDy=0;" edge="1" parent="1" source="AWNymy5XYkaNNb0FnIpC-4" target="ncUxjvFvRFmQVNuEIJSt-2">
          <mxGeometry relative="1" as="geometry">
            <Array as="points">
              <mxPoint x="-107" y="525" />
            </Array>
          </mxGeometry>
        </mxCell>
        <mxCell id="AWNymy5XYkaNNb0FnIpC-4" value="kata = text[i] + kata" style="rounded=0;whiteSpace=wrap;html=1;" vertex="1" parent="1">
          <mxGeometry x="-55" y="505" width="105" height="40" as="geometry" />
        </mxCell>
        <mxCell id="ncUxjvFvRFmQVNuEIJSt-16" style="edgeStyle=orthogonalEdgeStyle;rounded=0;orthogonalLoop=1;jettySize=auto;html=1;entryX=0;entryY=0.5;entryDx=0;entryDy=0;" edge="1" parent="1" source="ncUxjvFvRFmQVNuEIJSt-1" target="ncUxjvFvRFmQVNuEIJSt-2">
          <mxGeometry relative="1" as="geometry" />
        </mxCell>
        <mxCell id="ncUxjvFvRFmQVNuEIJSt-1" value="kata = &quot;&quot;" style="rounded=0;whiteSpace=wrap;html=1;" vertex="1" parent="1">
          <mxGeometry x="100.85" y="670" width="105" height="40" as="geometry" />
        </mxCell>
        <mxCell id="ncUxjvFvRFmQVNuEIJSt-18" style="edgeStyle=orthogonalEdgeStyle;rounded=0;orthogonalLoop=1;jettySize=auto;html=1;entryX=0;entryY=0.5;entryDx=0;entryDy=0;" edge="1" parent="1" source="ncUxjvFvRFmQVNuEIJSt-2" target="AWNymy5XYkaNNb0FnIpC-1">
          <mxGeometry relative="1" as="geometry" />
        </mxCell>
        <mxCell id="ncUxjvFvRFmQVNuEIJSt-2" value="i = i - 1" style="rounded=0;whiteSpace=wrap;html=1;" vertex="1" parent="1">
          <mxGeometry x="-160" y="390" width="105" height="40" as="geometry" />
        </mxCell>
        <mxCell id="ncUxjvFvRFmQVNuEIJSt-20" style="edgeStyle=orthogonalEdgeStyle;rounded=0;orthogonalLoop=1;jettySize=auto;html=1;entryX=0.5;entryY=0;entryDx=0;entryDy=0;" edge="1" parent="1" source="ncUxjvFvRFmQVNuEIJSt-3" target="ncUxjvFvRFmQVNuEIJSt-4">
          <mxGeometry relative="1" as="geometry" />
        </mxCell>
        <mxCell id="ncUxjvFvRFmQVNuEIJSt-3" value="reversed = reversed + kata" style="rounded=0;whiteSpace=wrap;html=1;" vertex="1" parent="1">
          <mxGeometry x="290" y="390" width="105" height="40" as="geometry" />
        </mxCell>
        <mxCell id="ncUxjvFvRFmQVNuEIJSt-22" style="edgeStyle=orthogonalEdgeStyle;rounded=0;orthogonalLoop=1;jettySize=auto;html=1;entryX=0;entryY=0.5;entryDx=0;entryDy=0;" edge="1" parent="1" source="ncUxjvFvRFmQVNuEIJSt-4" target="ncUxjvFvRFmQVNuEIJSt-5">
          <mxGeometry relative="1" as="geometry" />
        </mxCell>
        <mxCell id="ncUxjvFvRFmQVNuEIJSt-4" value="OUTPUT reversed" style="shape=parallelogram;perimeter=parallelogramPerimeter;whiteSpace=wrap;html=1;fixedSize=1;fontSize=11;" vertex="1" parent="1">
          <mxGeometry x="277.5" y="505" width="130" height="40" as="geometry" />
        </mxCell>
        <mxCell id="ncUxjvFvRFmQVNuEIJSt-5" value="END" style="ellipse;whiteSpace=wrap;html=1;" vertex="1" parent="1">
          <mxGeometry x="470" y="500" width="95" height="50" as="geometry" />
        </mxCell>
      </root>
    </mxGraphModel>
  </diagram>
</mxfile>
